HIERARCHY
ROOT Hips
{
  OFFSET 5.72205e-005 65.662 3.42586
  CHANNELS 6 Xposition Yposition Zposition Zrotation Xrotation Yrotation
  JOINT Chest
  {
    OFFSET 0 8.7983 -4.7612
    CHANNELS 6 Xposition Yposition Zposition Zrotation Xrotation Yrotation
    JOINT Chest2
    {
      OFFSET 0 8.0291 0.4195
      CHANNELS 6 Xposition Yposition Zposition Zrotation Xrotation Yrotation
      JOINT Chest3
      {
        OFFSET 0 9.9351 -2.2114
        CHANNELS 6 Xposition Yposition Zposition Zrotation Xrotation Yrotation
        JOINT Neck
        {
          OFFSET 0 22.3885 -0.4656
          CHANNELS 6 Xposition Yposition Zposition Zrotation Xrotation Yrotation
          JOINT Head
          {
            OFFSET -0.0001 12.643 3.4389
            CHANNELS 6 Xposition Yposition Zposition Zrotation Xrotation Yrotation
            End Site
            {
              OFFSET 0.0001 17.6655 0.5274
            }
          }
        }
        JOINT LeftCollar
        {
          OFFSET 2.2603 21.606 7.4023
          CHANNELS 6 Xposition Yposition Zposition Zrotation Xrotation Yrotation
          JOINT LeftShoulder
          {
            OFFSET 13.5163 -1.1332 -5.0146
            CHANNELS 6 Xposition Yposition Zposition Zrotation Xrotation Yrotation
            JOINT LeftElbow
            {
              OFFSET -0.0995 -28.05 -0.2431
              CHANNELS 6 Xposition Yposition Zposition Zrotation Xrotation Yrotation
              JOINT LeftWrist
              {
                OFFSET 0.0679 -23.3996 -0.1402
                CHANNELS 6 Xposition Yposition Zposition Zrotation Xrotation Yrotation
                JOINT LeftFinger1
                {
                  OFFSET 0.7932 -9.069 2.5189
                  CHANNELS 6 Xposition Yposition Zposition Zrotation Xrotation Yrotation
                  JOINT LeftFinger11
                  {
                    OFFSET -0.8272 -3.3923 0.5977
                    CHANNELS 6 Xposition Yposition Zposition Zrotation Xrotation Yrotation
                    JOINT LeftFinger12
                    {
                      OFFSET -0.5649 -2.3158 0.4082
                      CHANNELS 6 Xposition Yposition Zposition Zrotation Xrotation Yrotation
                      End Site
                      {
                        OFFSET -0.4919 -1.6479 0.2673
                      }
                    }
                  }
                }
                JOINT LeftFinger2
                {
                  OFFSET 0.9159 -9.2044 0.2193
                  CHANNELS 6 Xposition Yposition Zposition Zrotation Xrotation Yrotation
                  JOINT LeftFinger21
                  {
                    OFFSET 0.0117 -4.1944 -0.0248
                    CHANNELS 6 Xposition Yposition Zposition Zrotation Xrotation Yrotation
                    JOINT LeftFinger22
                    {
                      OFFSET 0.0071 -2.3249 -0.0142
                      CHANNELS 6 Xposition Yposition Zposition Zrotation Xrotation Yrotation
                      End Site
                      {
                        OFFSET -0.1475 -2.0882 0.0028
                      }
                    }
                  }
                }
                JOINT LeftFinger3
                {
                  OFFSET 0.6113 -8.7231 -2.0637
                  CHANNELS 6 Xposition Yposition Zposition Zrotation Xrotation Yrotation
                  JOINT LeftFinger31
                  {
                    OFFSET -0.1927 -3.8059 -0.2383
                    CHANNELS 6 Xposition Yposition Zposition Zrotation Xrotation Yrotation
                    JOINT LeftFinger32
                    {
                      OFFSET -0.1091 -2.1688 -0.1362
                      CHANNELS 6 Xposition Yposition Zposition Zrotation Xrotation Yrotation
                      End Site
                      {
                        OFFSET -0.2358 -1.9176 -0.0906
                      }
                    }
                  }
                }
                JOINT LeftFinger4
                {
                  OFFSET -0.6151 -8.0947 -3.5641
                  CHANNELS 6 Xposition Yposition Zposition Zrotation Xrotation Yrotation
                  JOINT LeftFinger41
                  {
                    OFFSET -0.4882 -2.341 -0.6462
                    CHANNELS 6 Xposition Yposition Zposition Zrotation Xrotation Yrotation
                    JOINT LeftFinger42
                    {
                      OFFSET -0.3575 -1.7167 -0.4742
                      CHANNELS 6 Xposition Yposition Zposition Zrotation Xrotation Yrotation
                      End Site
                      {
                        OFFSET -0.4187 -1.5237 -0.3496
                      }
                    }
                  }
                }
                JOINT LeftFinger0
                {
                  OFFSET -1.42 -1.8761 1.4223
                  CHANNELS 6 Xposition Yposition Zposition Zrotation Xrotation Yrotation
                  JOINT LeftFinger01
                  {
                    OFFSET -1.1471 -3.4929 2.6334
                    CHANNELS 6 Xposition Yposition Zposition Zrotation Xrotation Yrotation
                    JOINT LeftFinger02
                    {
                      OFFSET -0.823 -2.3 1.6571
                      CHANNELS 6 Xposition Yposition Zposition Zrotation Xrotation Yrotation
                      End Site
                      {
                        OFFSET -0.5822 -1.6914 1.1582
                      }
                    }
                  }
                }
              }
            }
          }
        }
        JOINT RightCollar
        {
          OFFSET -2.2603 21.606 7.4023
          CHANNELS 6 Xposition Yposition Zposition Zrotation Xrotation Yrotation
          JOINT RightShoulder
          {
            OFFSET -13.5187 -1.1334 -5.0155
            CHANNELS 6 Xposition Yposition Zposition Zrotation Xrotation Yrotation
            JOINT RightElbow
            {
              OFFSET 0.0994 -28.0499 -0.2431
              CHANNELS 6 Xposition Yposition Zposition Zrotation Xrotation Yrotation
              JOINT RightWrist
              {
                OFFSET -0.0679 -23.3996 -0.1402
                CHANNELS 6 Xposition Yposition Zposition Zrotation Xrotation Yrotation
                JOINT RightFinger1
                {
                  OFFSET -0.7932 -9.0691 2.5189
                  CHANNELS 6 Xposition Yposition Zposition Zrotation Xrotation Yrotation
                  JOINT RightFinger11
                  {
                    OFFSET 0.8272 -3.3923 0.5977
                    CHANNELS 6 Xposition Yposition Zposition Zrotation Xrotation Yrotation
                    JOINT RightFinger12
                    {
                      OFFSET 0.565 -2.3158 0.4082
                      CHANNELS 6 Xposition Yposition Zposition Zrotation Xrotation Yrotation
                      End Site
                      {
                        OFFSET 0.4919 -1.6479 0.2673
                      }
                    }
                  }
                }
                JOINT RightFinger2
                {
                  OFFSET -0.916 -9.2044 0.2193
                  CHANNELS 6 Xposition Yposition Zposition Zrotation Xrotation Yrotation
                  JOINT RightFinger21
                  {
                    OFFSET -0.0117 -4.1944 -0.0248
                    CHANNELS 6 Xposition Yposition Zposition Zrotation Xrotation Yrotation
                    JOINT RightFinger22
                    {
                      OFFSET -0.0071 -2.3249 -0.0142
                      CHANNELS 6 Xposition Yposition Zposition Zrotation Xrotation Yrotation
                      End Site
                      {
                        OFFSET 0.1475 -2.0882 0.0028
                      }
                    }
                  }
                }
                JOINT RightFinger3
                {
                  OFFSET -0.6113 -8.7231 -2.0637
                  CHANNELS 6 Xposition Yposition Zposition Zrotation Xrotation Yrotation
                  JOINT RightFinger31
                  {
                    OFFSET 0.1927 -3.8059 -0.2383
                    CHANNELS 6 Xposition Yposition Zposition Zrotation Xrotation Yrotation
                    JOINT RightFinger32
                    {
                      OFFSET 0.1091 -2.1688 -0.1362
                      CHANNELS 6 Xposition Yposition Zposition Zrotation Xrotation Yrotation
                      End Site
                      {
                        OFFSET 0.2358 -1.9176 -0.0906
                      }
                    }
                  }
                }
                JOINT RightFinger4
                {
                  OFFSET 0.6151 -8.0947 -3.564
                  CHANNELS 6 Xposition Yposition Zposition Zrotation Xrotation Yrotation
                  JOINT RightFinger41
                  {
                    OFFSET 0.4882 -2.341 -0.6462
                    CHANNELS 6 Xposition Yposition Zposition Zrotation Xrotation Yrotation
                    JOINT RightFinger42
                    {
                      OFFSET 0.3574 -1.7166 -0.4742
                      CHANNELS 6 Xposition Yposition Zposition Zrotation Xrotation Yrotation
                      End Site
                      {
                        OFFSET 0.4187 -1.5237 -0.3496
                      }
                    }
                  }
                }
                JOINT RightFinger0
                {
                  OFFSET 1.4199 -1.8761 1.4221
                  CHANNELS 6 Xposition Yposition Zposition Zrotation Xrotation Yrotation
                  JOINT RightFinger01
                  {
                    OFFSET 1.1472 -3.4929 2.6336
                    CHANNELS 6 Xposition Yposition Zposition Zrotation Xrotation Yrotation
                    JOINT RightFinger02
                    {
                      OFFSET 0.8229 -2.3 1.6571
                      CHANNELS 6 Xposition Yposition Zposition Zrotation Xrotation Yrotation
                      End Site
                      {
                        OFFSET 0.5822 -1.6914 1.1582
                      }
                    }
                  }
                }
              }
            }
          }
        }
      }
    }
  }
  JOINT RightHip
  {
    OFFSET -9.412 3.9771 -0.7758
    CHANNELS 6 Xposition Yposition Zposition Zrotation Xrotation Yrotation
    JOINT RightKnee
    {
      OFFSET -0.7531 -40.938 0
      CHANNELS 6 Xposition Yposition Zposition Zrotation Xrotation Yrotation
      JOINT RightAnkle
      {
        OFFSET 0 -40.1986 0
        CHANNELS 6 Xposition Yposition Zposition Zrotation Xrotation Yrotation
        JOINT RightToe
        {
          OFFSET 0 -4.4182 9.239
          CHANNELS 6 Xposition Yposition Zposition Zrotation Xrotation Yrotation
          End Site
          {
            OFFSET 0 0 6.1981
          }
        }
      }
    }
  }
  JOINT LeftHip
  {
    OFFSET 9.4119 3.9773 -0.7758
    CHANNELS 6 Xposition Yposition Zposition Zrotation Xrotation Yrotation
    JOINT LeftKnee
    {
      OFFSET 0.7532 -40.9383 0
      CHANNELS 6 Xposition Yposition Zposition Zrotation Xrotation Yrotation
      JOINT LeftAnkle
      {
        OFFSET 0 -40.1986 0
        CHANNELS 6 Xposition Yposition Zposition Zrotation Xrotation Yrotation
        JOINT LeftToe
        {
          OFFSET 0 -4.4182 9.239
          CHANNELS 6 Xposition Yposition Zposition Zrotation Xrotation Yrotation
          End Site
          {
            OFFSET 0 0 6.1981
          }
        }
      }
    }
  }
}
MOTION
Frames:	4
Frame Time:	0.0333333
13.3341 5.11051 6.22553 90 -5.12264e-006 7.00164 0 8.7983 -4.7612 0.181405 6.43725 -0.184415 -8.88178e-016 8.0291 0.4195 0.387492 12.8739 -0.393234 0 9.9351 -2.2114 0.387518 12.8739 -0.39323 0 22.3885 -0.4656 -9.61965 22.5081 3.72787 -0.0001 12.643 3.4389 -25.1819 9.06739 5.22131 2.2603 21.606 7.4023 -20.8328 -0.147543 -15.6911 13.5163 -1.1332 -5.0146 70.427 -34.3926 9.94427 -0.0995 -28.05 -0.2431 -64.6876 -16.9933 -25.3652 0.0679 -23.3996 -0.1402 14.2624 10.9202 -1.23174 0.7932 -9.069 2.5189 1.59028e-015 -6.36111e-015 6.36111e-015 -0.8272 -3.3923 0.5977 -1.59028e-015 -6.36111e-015 -0 -0.5649 -2.3158 0.4082 -3.18055e-015 -9.54166e-015 -3.18055e-015 0.9159 -9.2044 0.2193 1.59028e-015 -6.36111e-015 6.36111e-015 0.0117 -4.1944 -0.0248 -0.0128011 0.00231695 9.0888e-005 0.0071 -2.3249 -0.0142 -3.18055e-015 -6.36111e-015 -6.36111e-015 0.6113 -8.7231 -2.0637 1.59028e-015 -6.36111e-015 6.36111e-015 -0.1927 -3.8059 -0.2383 -0.0160198 0.0029878 0.000870797 -0.1091 -2.1688 -0.1362 -8.82781e-031 7.95139e-015 6.36111e-015 -0.6151 -8.0947 -3.5641 1.59028e-015 -6.36111e-015 6.36111e-015 -0.4882 -2.341 -0.6462 -0.0125818 0.00312365 0.00283664 -0.3575 -1.7167 -0.4742 1.59028e-015 7.95139e-015 3.18055e-015 -1.42 -1.8761 1.4223 1.59028e-015 -6.36111e-015 6.36111e-015 -1.1471 -3.4929 2.6334 -1.59028e-015 -6.36111e-015 -0 -0.823 -2.3 1.6571 -3.18055e-015 -9.54166e-015 -3.18055e-015 -2.2603 21.606 7.4023 -10.9658 16.4643 -2.91811 -13.5187 -1.1334 -5.0155 9.32701 31.9713 -24.4628 0.0994 -28.0499 -0.2431 145.494 -63.4507 152.552 -0.0679 -23.3996 -0.1402 -3.46006 -21.7928 -17.672 -0.7932 -9.0691 2.5189 -3.97569e-016 9.54166e-015 1.59028e-015 0.8272 -3.3923 0.5977 -1.19271e-015 1.27222e-014 1.98785e-015 0.565 -2.3158 0.4082 -1.30992e-006 3.16079e-007 -4.05905e-006 -0.916 -9.2044 0.2193 -3.97569e-016 9.54166e-015 1.59028e-015 -0.0117 -4.1944 -0.0248 0.0129493 0.00231444 -9.27083e-005 -0.0071 -2.3249 -0.0142 -1.02735e-006 -2.69955e-006 -1.25639e-006 -0.6113 -8.7231 -2.0637 -3.97569e-016 9.54166e-015 1.59028e-015 0.1927 -3.8059 -0.2383 0.0163299 0.00303276 -0.000879334 0.1091 -2.1688 -0.1362 -7.95139e-016 1.59028e-014 2.5842e-015 0.6151 -8.0947 -3.564 -3.97569e-016 9.54166e-015 1.59028e-015 0.4882 -2.341 -0.6462 0.0145662 0.00368464 -0.00326374 0.3574 -1.7166 -0.4742 -2.78299e-015 1.90833e-014 1.19271e-015 1.4199 -1.8761 1.4221 -3.97569e-016 9.54166e-015 1.59028e-015 1.1472 -3.4929 2.6336 -1.19271e-015 1.27222e-014 1.98785e-015 0.8229 -2.3 1.6571 -1.30992e-006 3.16079e-007 -4.05905e-006 -9.412 3.9771 -0.7758 -33.3289 -55.1683 -42.0789 -0.7531 -40.938 3.55271e-015 27.496 85.0893 -28.2922 -1.77636e-015 -40.1986 -7.10543e-015 -6.57973 2.10585 -2.15019 8.88179e-016 -4.4182 9.239 1.52975e-006 -3.05491e-006 7.5563e-007 9.4119 3.9773 -0.7758 38.4593 -53.3252 73.1417 0.7532 -40.9383 7.99361e-015 -144.084 57.0356 147.477 0 -40.1986 0 2.21058 4.40558 -4.109 -3.55271e-015 -4.4182 9.239 1.44654e-005 3.70299e-006 1.11925e-005 
13.1311 5.12838 6.14109 90 -4.69575e-006 7.00164 0 8.7983 -4.7612 0.181682 6.38812 -0.183726 0 8.0291 0.4195 0.387756 12.7756 -0.391655 8.88179e-016 9.9351 -2.2114 0.387745 12.7757 -0.391663 8.88179e-016 22.3885 -0.4656 -9.43996 22.2668 3.63958 -0.0001 12.643 3.4389 -24.9823 9.08361 5.17342 2.2603 21.606 7.4023 -21.5087 0.0413298 -16.5481 13.5163 -1.1332 -5.0146 70.4015 -33.9679 9.87475 -0.0995 -28.05 -0.2431 -62.7392 -17.0795 -24.611 0.0679 -23.3996 -0.1402 13.1654 10.4423 -1.08709 0.7932 -9.069 2.5189 2.40508e-006 3.49717e-007 4.22073e-006 -0.8272 -3.3923 0.5977 -1.0256e-005 -9.32712e-006 6.76456e-006 -0.5649 -2.3158 0.4082 -1.59028e-015 -3.18055e-015 -9.54166e-015 0.9159 -9.2044 0.2193 2.40508e-006 3.49717e-007 4.22073e-006 0.0117 -4.1944 -0.0248 -0.0128378 0.00232234 8.91625e-005 0.0071 -2.3249 -0.0142 8.82781e-032 1.59028e-015 -3.18055e-015 0.6113 -8.7231 -2.0637 2.40508e-006 3.49717e-007 4.22073e-006 -0.1927 -3.8059 -0.2383 -0.0160431 0.00299338 0.000865072 -0.1091 -2.1688 -0.1362 1.59028e-015 3.18055e-015 -0 -0.6151 -8.0947 -3.5641 2.40508e-006 3.49717e-007 4.22073e-006 -0.4882 -2.341 -0.6462 -0.0125916 0.00311455 0.00283027 -0.3575 -1.7167 -0.4742 -4.77083e-015 6.36111e-015 -9.54166e-015 -1.42 -1.8761 1.4223 2.40508e-006 3.49717e-007 4.22073e-006 -1.1471 -3.4929 2.6334 -1.0256e-005 -9.32712e-006 6.76456e-006 -0.823 -2.3 1.6571 -1.59028e-015 -3.18055e-015 -9.54166e-015 -2.2603 21.606 7.4023 -10.4909 15.8465 -2.72675 -13.5187 -1.1334 -5.0155 8.75421 31.7758 -24.2515 0.0994 -28.0499 -0.2431 145.477 -63.8911 152.514 -0.0679 -23.3996 -0.1402 -3.49648 -21.0877 -17.4998 -0.7932 -9.0691 2.5189 -1.38759e-006 1.89803e-007 -9.92693e-007 0.8272 -3.3923 0.5977 -9.93129e-032 9.54166e-015 5.96354e-016 0.565 -2.3158 0.4082 -1.19271e-015 1.90833e-014 1.59028e-015 -0.916 -9.2044 0.2193 -1.38759e-006 1.89803e-007 -9.92693e-007 -0.0117 -4.1944 -0.0248 0.0129588 0.00231512 -8.89365e-005 -0.0071 -2.3249 -0.0142 -1.19271e-015 3.18055e-015 -1.98785e-016 -0.6113 -8.7231 -2.0637 -1.38759e-006 1.89803e-007 -9.92693e-007 0.1927 -3.8059 -0.2383 0.0163314 0.00303091 -0.000873037 0.1091 -2.1688 -0.1362 -5.51738e-032 3.18055e-015 9.93923e-016 0.6151 -8.0947 -3.564 -1.38759e-006 1.89803e-007 -9.92693e-007 0.4882 -2.341 -0.6462 0.014586 0.00367068 -0.00326506 0.3574 -1.7166 -0.4742 7.95139e-016 2.22639e-014 7.95139e-016 1.4199 -1.8761 1.4221 -1.38759e-006 1.89803e-007 -9.92693e-007 1.1472 -3.4929 2.6336 -9.93129e-032 9.54166e-015 5.96354e-016 0.8229 -2.3 1.6571 -1.19271e-015 1.90833e-014 1.59028e-015 -9.412 3.9771 -0.7758 -33.1085 -54.9899 -41.8591 -0.7531 -40.938 -1.77636e-015 25.671 84.653 -26.4692 -8.88179e-016 -40.1986 0 -6.59164 2.33119 -2.09669 -1.77636e-015 -4.4182 9.239 1.59028e-015 0 -4.77083e-015 9.4119 3.9773 -0.7758 38.1067 -53.2825 72.7823 0.7532 -40.9383 -3.10863e-015 -143.489 57.3254 147.005 -3.55271e-015 -40.1986 0 2.25645 4.63065 -4.23124 -3.55271e-015 -4.4182 9.239 -1.57049e-006 1.52559e-006 3.02325e-008 
12.9478 5.14452 6.06486 90 0 7.00164 0 8.7983 -4.7612 0.181912 6.34375 -0.183097 0 8.0291 0.4195 0.387983 12.6869 -0.390229 0 9.9351 -2.2114 0.387977 12.6869 -0.390232 -8.88179e-016 22.3885 -0.4656 -9.27896 22.0496 3.56107 -0.0001 12.643 3.4389 -24.8031 9.09801 5.13036 2.2603 21.606 7.4023 -22.1176 0.221588 -17.3211 13.5163 -1.1332 -5.0146 70.4746 -33.7436 9.86573 -0.0995 -28.05 -0.2431 -60.9794 -17.0454 -23.7725 0.0679 -23.3996 -0.1402 12.176 10.0076 -0.965278 0.7932 -9.069 2.5189 1.59028e-015 3.18055e-015 6.36111e-015 -0.8272 -3.3923 0.5977 1.59028e-015 -4.77083e-015 3.18055e-015 -0.5649 -2.3158 0.4082 1.59028e-015 -1.59028e-015 -3.18055e-015 0.9159 -9.2044 0.2193 1.59028e-015 3.18055e-015 6.36111e-015 0.0117 -4.1944 -0.0248 -0.0127894 0.00232648 8.12336e-005 0.0071 -2.3249 -0.0142 7.95139e-015 -4.77083e-015 1.27222e-014 0.6113 -8.7231 -2.0637 1.59028e-015 3.18055e-015 6.36111e-015 -0.1927 -3.8059 -0.2383 -0.0159994 0.00300291 0.000854832 -0.1091 -2.1688 -0.1362 -6.36111e-015 0 9.54166e-015 -0.6151 -8.0947 -3.5641 1.59028e-015 3.18055e-015 6.36111e-015 -0.4882 -2.341 -0.6462 -0.0125556 0.00313469 0.00282249 -0.3575 -1.7167 -0.4742 3.18055e-015 3.18055e-015 6.36111e-015 -1.42 -1.8761 1.4223 1.59028e-015 3.18055e-015 6.36111e-015 -1.1471 -3.4929 2.6334 1.59028e-015 -4.77083e-015 3.18055e-015 -0.823 -2.3 1.6571 1.59028e-015 -1.59028e-015 -3.18055e-015 -2.2603 21.606 7.4023 -10.0613 15.2898 -2.5492 -13.5187 -1.1334 -5.0155 8.23885 31.5975 -24.0633 0.0994 -28.0499 -0.2431 145.461 -64.2889 152.48 -0.0679 -23.3996 -0.1402 -3.53145 -20.4507 -17.3447 -0.7932 -9.0691 2.5189 -6.17925e-006 -4.00725e-006 -6.51435e-006 0.8272 -3.3923 0.5977 -7.95139e-015 0 8.74653e-015 0.565 -2.3158 0.4082 -6.75868e-015 6.36111e-015 9.74045e-015 -0.916 -9.2044 0.2193 -6.17925e-006 -4.00725e-006 -6.51435e-006 -0.0117 -4.1944 -0.0248 0.0129576 0.0023253 -7.96399e-005 -0.0071 -2.3249 -0.0142 1.59028e-015 1.27222e-014 -1.98785e-016 -0.6113 -8.7231 -2.0637 -6.17925e-006 -4.00725e-006 -6.51435e-006 0.1927 -3.8059 -0.2383 0.016333 0.00304343 -0.000868591 0.1091 -2.1688 -0.1362 -2.77414e-006 -2.42928e-006 -1.98703e-006 0.6151 -8.0947 -3.564 -6.17925e-006 -4.00725e-006 -6.51435e-006 0.4882 -2.341 -0.6462 0.0145994 0.00368383 -0.00326127 0.3574 -1.7166 -0.4742 -3.97569e-016 -6.36111e-015 -2.18663e-015 1.4199 -1.8761 1.4221 -6.17925e-006 -4.00725e-006 -6.51435e-006 1.1472 -3.4929 2.6336 -7.95139e-015 0 8.74653e-015 0.8229 -2.3 1.6571 -6.75868e-015 6.36111e-015 9.74045e-015 -9.412 3.9771 -0.7758 -32.8788 -54.8394 -41.636 -0.7531 -40.938 -8.88179e-016 24.2229 84.2513 -25.044 0 -40.1986 7.10543e-015 -6.60266 2.53449 -2.04839 -1.77636e-015 -4.4182 9.239 1.06642e-005 1.78501e-006 1.60892e-006 9.4119 3.9773 -0.7758 37.9607 -53.1721 72.5951 0.7532 -40.9383 -6.21725e-015 -143.114 57.5227 146.656 3.55271e-015 -40.1986 0 2.29835 4.83363 -4.34174 -3.55271e-015 -4.4182 9.239 5.04934e-006 -2.56456e-006 3.38187e-006 
12.7646 5.16066 5.98862 90 -4.69575e-006 7.00164 8.88179e-016 8.7983 -4.7612 0.182144 6.29932 -0.182481 0 8.0291 0.4195 0.388204 12.598 -0.388795 -8.88178e-016 9.9351 -2.2114 0.388205 12.5981 -0.388798 0 22.3885 -0.4656 -9.11848 21.8322 3.4833 -0.0001 12.643 3.4389 -24.6238 9.11231 5.08726 2.2603 21.606 7.4023 -22.7248 0.410338 -18.0931 13.5163 -1.1332 -5.0146 70.4078 -33.288 9.77879 -0.0995 -28.05 -0.2431 -59.2092 -17.1102 -23.1597 0.0679 -23.3996 -0.1402 11.1875 9.5703 -0.851081 0.7932 -9.069 2.5189 -1.59028e-015 1.11319e-014 -3.18055e-015 -0.8272 -3.3923 0.5977 1.59028e-015 7.95139e-015 -6.36111e-015 -0.5649 -2.3158 0.4082 -1.59028e-015 7.95139e-015 -0 0.9159 -9.2044 0.2193 -1.59028e-015 1.11319e-014 -3.18055e-015 0.0117 -4.1944 -0.0248 -0.0128542 0.00232819 8.07494e-005 0.0071 -2.3249 -0.0142 6.36111e-015 1.59028e-015 -3.18055e-015 0.6113 -8.7231 -2.0637 -1.59028e-015 1.11319e-014 -3.18055e-015 -0.1927 -3.8059 -0.2383 -0.0160778 0.00299593 0.000861064 -0.1091 -2.1688 -0.1362 -3.18055e-015 1.59028e-015 -0 -0.6151 -8.0947 -3.5641 -1.59028e-015 1.11319e-014 -3.18055e-015 -0.4882 -2.341 -0.6462 -0.0126047 0.00312358 0.00282901 -0.3575 -1.7167 -0.4742 4.77083e-015 1.59028e-015 -3.18055e-015 -1.42 -1.8761 1.4223 -1.59028e-015 1.11319e-014 -3.18055e-015 -1.1471 -3.4929 2.6334 1.59028e-015 7.95139e-015 -6.36111e-015 -0.823 -2.3 1.6571 -1.59028e-015 7.95139e-015 -0 -2.2603 21.606 7.4023 -9.63082 14.7339 -2.36766 -13.5187 -1.1334 -5.0155 7.72504 31.4177 -23.8773 0.0994 -28.0499 -0.2431 145.445 -64.6869 152.445 -0.0679 -23.3996 -0.1402 -3.56817 -19.8135 -17.1898 -0.7932 -9.0691 2.5189 -1.65521e-031 9.54166e-015 9.93923e-016 0.8272 -3.3923 0.5977 -3.97569e-016 6.36111e-015 1.98785e-016 0.565 -2.3158 0.4082 -1.10348e-031 6.36111e-015 9.93923e-016 -0.916 -9.2044 0.2193 -1.65521e-031 9.54166e-015 9.93923e-016 -0.0117 -4.1944 -0.0248 0.0129438 0.00231138 -7.87827e-005 -0.0071 -2.3249 -0.0142 7.72849e-006 -1.4512e-006 -2.28289e-006 -0.6113 -8.7231 -2.0637 -1.65521e-031 9.54166e-015 9.93923e-016 0.1927 -3.8059 -0.2383 0.016343 0.00304149 -0.000869594 0.1091 -2.1688 -0.1362 2.20695e-032 -6.36111e-015 1.98785e-016 0.6151 -8.0947 -3.564 -1.65521e-031 9.54166e-015 9.93923e-016 0.4882 -2.341 -0.6462 0.0145706 0.00368483 -0.00325692 0.3574 -1.7166 -0.4742 -4.77083e-015 3.18055e-015 2.5842e-015 1.4199 -1.8761 1.4221 -1.65521e-031 9.54166e-015 9.93923e-016 1.1472 -3.4929 2.6336 -3.97569e-016 6.36111e-015 1.98785e-016 0.8229 -2.3 1.6571 -1.10348e-031 6.36111e-015 9.93923e-016 -9.412 3.9771 -0.7758 -32.8202 -54.6302 -41.5526 -0.7531 -40.938 0 23.1547 83.8661 -23.8874 -8.88179e-016 -40.1986 7.10543e-015 -6.61386 2.73769 -2.00007 1.77636e-015 -4.4182 9.23901 1.05333e-006 -2.68328e-006 -2.38747e-006 9.4119 3.9773 -0.7758 37.7543 -53.0868 72.3605 0.7532 -40.9383 -4.88498e-015 -142.674 57.7406 146.273 -3.55271e-015 -40.1986 0 2.34067 5.03624 -4.45228 -3.55271e-015 -4.4182 9.239 -8.82781e-032 1.59028e-015 3.18055e-015 
